<svg xmlns="http://www.w3.org/2000/svg" width="24" height="19" viewBox="0 0 24 19">
  <g id="Group_13305" data-name="Group 13305" transform="translate(-9133 17019)">
    <path id="Path_11025" data-name="Path 11025" d="M106.868,116.809a9,9,0,0,1-8.428-5.757l-.056-.143.056-.143a9.048,9.048,0,0,1,16.856,0l.055.143-.056.143a8.994,8.994,0,0,1-8.428,5.757Zm-7.638-5.9a8.261,8.261,0,0,0,15.276,0,8.261,8.261,0,0,0-15.276,0Zm7.638,2.754a2.754,2.754,0,1,1,2.754-2.754A2.757,2.757,0,0,1,106.868,113.662Zm0-4.721a1.967,1.967,0,1,0,1.967,1.967A1.969,1.969,0,0,0,106.868,108.941Z" transform="translate(9038.616 -17120.008)" fill="#bdbdbd"/>
    <rect id="Rectangle_6515" data-name="Rectangle 6515" width="24" height="19" transform="translate(9133 -17019)" fill="none"/>
  </g>
</svg>
