<svg xmlns="http://www.w3.org/2000/svg" width="24" height="19" viewBox="0 0 24 19">
  <g id="Group_13306" data-name="Group 13306" transform="translate(-9180 17020)">
    <path id="noun-hide-password-closed-eye-2540385" d="M98.313,51.546l-3.87,3.87-.581-.581,3.716-3.716a15.13,15.13,0,0,1-1.484-1.062c-1.452-1.173-2.762-2.673-2.762-3.141s1.31-1.969,2.762-3.141a10.26,10.26,0,0,1,6.269-2.605,8.621,8.621,0,0,1,4.049,1.117l3.87-3.87.581.581-3.716,3.716a15.131,15.131,0,0,1,1.484,1.062c1.452,1.173,2.762,2.673,2.762,3.141s-1.31,1.969-2.762,3.141a10.26,10.26,0,0,1-6.269,2.605A8.621,8.621,0,0,1,98.313,51.546Zm.609-.609a7.678,7.678,0,0,0,3.44.905,9.495,9.495,0,0,0,5.753-2.423,15.148,15.148,0,0,0,1.849-1.766,7.436,7.436,0,0,0,.5-.624c.065-.093.111-.181.111-.113s-.046-.02-.111-.113a7.453,7.453,0,0,0-.5-.624,15.145,15.145,0,0,0-1.849-1.766,14.043,14.043,0,0,0-1.565-1.1L104.957,44.9a3.284,3.284,0,0,1-4.608,4.608Zm-.747-.414,1.593-1.593a3.284,3.284,0,0,1,4.608-4.608L105.8,42.9a7.678,7.678,0,0,0-3.44-.905,9.5,9.5,0,0,0-5.753,2.423,15.148,15.148,0,0,0-1.849,1.766,7.433,7.433,0,0,0-.5.624c-.065.093-.111.181-.111.113s.046.02.111.113a7.451,7.451,0,0,0,.5.624,15.145,15.145,0,0,0,1.849,1.766,14.045,14.045,0,0,0,1.565,1.1Zm2.76-1.6a2.463,2.463,0,0,0,3.435-3.435Zm-.581-.581,3.435-3.435a2.463,2.463,0,0,0-3.435,3.435Z" transform="translate(9089.668 -17057.416)" fill="#bdbdbd"/>
    <rect id="Rectangle_6514" data-name="Rectangle 6514" width="24" height="19" transform="translate(9180 -17020)" fill="none"/>
  </g>
</svg>
